<svg xmlns="http://www.w3.org/2000/svg" width="256" height="256" viewBox="0 0 100 100"><rect width="100" height="100" rx="20" fill="#bd5d38"></rect><path fill="#343a40" d="M20.40 37.30L20.40 37.30Q19.31 41.51 17.71 46.03Q16.11 50.56 14.39 54.61L14.39 54.61Q14.32 54.77 14.00 55.35Q13.69 55.94 13.54 55.86L13.54 55.86Q13.30 55.86 13.34 55.20Q13.38 54.53 13.46 54.30L13.46 54.30Q13.54 53.36 13.81 51.96Q14.08 50.56 14.36 49.07Q14.63 47.59 14.98 46.19Q15.33 44.78 15.64 43.77L15.64 43.77Q15.88 43.07 16.50 40.26Q17.12 37.45 17.71 34.02Q18.29 30.59 18.61 27.39Q18.92 24.19 18.61 22.71L18.61 22.71Q18.45 22.01 18.61 22.01L18.61 22.01Q18.76 22.01 18.88 22.20Q19.00 22.40 19.15 22.55L19.15 22.55Q20.01 23.88 20.48 25.75Q20.95 27.62 21.06 29.69Q21.18 31.76 20.99 33.79Q20.79 35.81 20.40 37.30ZM16.89 20.60L16.89 20.60Q17.98 24.35 17.59 28.36Q17.20 32.38 16.07 36.59Q14.94 40.81 13.54 45.17Q12.13 49.54 11.12 53.83L11.12 53.83Q10.18 57.89 9.83 61.87Q9.48 65.84 10.34 69.98L10.34 69.98Q10.57 69.59 10.85 69.43Q11.12 69.28 11.43 69.04L11.43 69.04Q11.43 68.11 11.43 67.13Q11.43 66.16 11.51 65.38Q11.59 64.60 11.74 64.13Q11.90 63.66 12.21 63.66L12.21 63.66Q12.29 63.66 12.41 64.05Q12.52 64.44 12.60 64.95Q12.68 65.45 12.76 65.96Q12.83 66.47 12.83 66.62L12.83 66.62Q12.91 67.25 12.91 67.56Q12.91 67.87 13.07 68.26L13.07 68.26Q13.22 68.18 13.58 68.07Q13.93 67.95 14.32 67.87L14.32 67.87Q14.71 62.26 16.11 56.68Q17.51 51.10 19.23 45.41L19.23 45.41Q20.32 41.74 21.30 37.88Q22.27 34.02 22.43 29.57L22.43 29.57Q22.43 29.18 22.66 29.18L22.66 29.18Q22.74 29.18 22.74 29.34Q22.74 29.50 22.90 29.65L22.90 29.65Q23.75 31.76 23.52 35.15Q23.29 38.54 22.58 42.17Q21.88 45.80 20.95 49.19Q20.01 52.58 19.54 54.61L19.54 54.61Q18.68 57.89 17.59 61.28Q16.50 64.67 15.49 67.64L15.49 67.64Q16.97 67.40 18.65 67.33Q20.32 67.25 21.73 67.29Q23.13 67.33 24.18 67.36Q25.24 67.40 25.55 67.40L25.55 67.40Q27.81 67.48 30.23 67.95Q32.65 68.42 34.44 68.73L34.44 68.73Q35.06 68.89 35.06 69.04L35.06 69.04Q35.06 69.20 34.83 69.28Q34.60 69.35 34.44 69.43L34.44 69.43Q31.01 70.52 27.54 70.33Q24.07 70.13 20.32 69.74L20.32 69.74Q18.92 69.59 17.40 69.51Q15.88 69.43 14.39 69.55Q12.91 69.67 11.55 70.09Q10.18 70.52 9.09 71.46L9.09 71.46Q7.37 67.01 7.61 62.10Q7.84 57.19 9.01 52.27L9.01 52.27Q10.03 47.98 11.35 43.73Q12.68 39.48 13.81 35.46Q14.94 31.45 15.68 27.70Q16.42 23.96 16.34 20.53L16.34 20.53Q16.50 20.06 16.58 20.06L16.58 20.06Q16.66 19.98 16.73 20.25Q16.81 20.53 16.89 20.60ZM38.65 67.17L38.65 67.17Q38.81 66.94 38.93 67.21Q39.04 67.48 38.89 67.87L38.89 67.87Q38.42 69.04 37.99 69.90Q37.56 70.76 36.31 71.62L36.31 71.62Q35.77 72.01 34.99 72.32Q34.21 72.63 33.50 72.79Q32.80 72.94 32.26 72.94Q31.71 72.94 31.71 72.63L31.71 72.63Q31.63 72.40 32.37 72.01Q33.11 71.62 33.43 71.46L33.43 71.46Q34.05 71.07 34.67 70.72Q35.30 70.37 35.92 69.90L35.92 69.90Q36.55 69.28 37.29 68.65Q38.03 68.03 38.65 67.17ZM39.04 69.51L39.04 69.51Q39.28 69.12 39.28 69.43Q39.28 69.74 39.20 69.90L39.20 69.90Q38.03 72.55 36.51 73.96Q34.99 75.36 33.23 76.02Q31.48 76.69 29.57 76.80Q27.65 76.92 25.78 76.92L25.78 76.92Q20.56 76.84 15.60 76.49Q10.65 76.14 6.67 76.92L6.67 76.92Q6.52 76.92 6.36 76.96Q6.20 77.00 6.52 76.76L6.52 76.76Q8.39 74.89 10.73 74.50Q13.07 74.11 15.68 74.38Q18.29 74.66 21.02 75.20Q23.75 75.75 26.33 75.83L26.33 75.83Q29.60 75.91 33.08 74.46Q36.55 73.02 39.04 69.51ZM27.11 73.10L27.11 73.10Q27.11 73.25 26.80 73.33Q26.48 73.41 26.33 73.41L26.33 73.41Q25.16 73.64 23.17 73.72Q21.18 73.80 19.54 73.64L19.54 73.64Q19.15 73.64 17.75 73.53Q16.34 73.41 14.51 73.45Q12.68 73.49 10.81 73.88Q8.93 74.27 7.61 75.20L7.61 75.20Q7.30 75.52 7.14 75.28L7.14 75.28Q7.14 75.20 7.26 74.93Q7.37 74.66 7.45 74.58L7.45 74.58Q8.54 72.86 10.85 71.97Q13.15 71.07 15.49 70.84L15.49 70.84Q17.98 70.60 20.87 71.11Q23.75 71.62 26.33 72.40L26.33 72.40Q26.41 72.40 26.76 72.63Q27.11 72.86 27.11 73.10ZM58.31 20.53L58.31 20.53Q58.00 19.82 58.15 19.82L58.15 19.82Q58.39 19.82 58.70 20.17Q59.01 20.53 59.09 20.60L59.09 20.60Q59.87 21.77 60.80 23.14Q61.74 24.50 62.60 26.38Q63.46 28.25 64.16 30.70Q64.86 33.16 65.25 36.52L65.25 36.52Q65.72 40.34 65.45 44.04Q65.17 47.75 64.55 51.49L64.55 51.49Q64.47 51.65 64.39 52.27Q64.31 52.90 64.08 52.90L64.08 52.90Q63.92 52.90 63.77 52.31Q63.61 51.73 63.61 51.49L63.61 51.49Q63.46 50.63 63.30 49.46Q63.14 48.29 63.03 47.01Q62.91 45.72 62.87 44.51Q62.83 43.30 62.83 42.37L62.83 42.37Q62.83 42.05 62.79 41.00Q62.75 39.95 62.68 38.54Q62.60 37.14 62.40 35.46Q62.21 33.79 61.97 32.15L61.97 32.15Q62.13 34.57 61.97 36.98Q61.82 39.40 61.58 41.86Q61.35 44.32 61.19 46.77Q61.04 49.23 61.19 51.73L61.19 51.73Q61.43 56.56 63.14 61.55Q64.86 66.55 68.60 70.06L68.60 70.06Q69.07 70.52 68.99 70.52L68.99 70.52Q68.84 70.60 68.45 70.37L68.45 70.37Q65.72 68.81 63.92 66.62Q62.13 64.44 61.00 61.87Q59.87 59.29 59.32 56.52Q58.78 53.75 58.70 50.95L58.70 50.95Q58.70 50.71 58.66 50.52Q58.62 50.32 58.62 50.09L58.62 50.09Q57.06 54.53 55.15 58.67Q53.24 62.80 51.41 66.62Q49.57 70.45 47.97 73.84Q46.37 77.23 45.44 80.12L45.44 80.12Q45.28 80.51 45.20 80.51L45.20 80.51Q45.05 80.51 45.05 80.27Q45.05 80.04 45.05 79.96L45.05 79.96Q45.13 76.30 46.53 72.28Q47.93 68.26 49.85 63.93Q51.76 59.60 53.86 55.04Q55.97 50.48 57.53 45.72L57.53 45.72Q58.46 42.68 59.13 39.40Q59.79 36.13 59.95 32.85Q60.10 29.57 59.71 26.41Q59.32 23.26 58.31 20.53ZM67.98 65.45L67.98 65.45Q68.84 67.25 70.24 68.81L70.24 68.81Q70.79 65.53 72.35 62.29Q73.91 59.06 75.90 55.78Q77.89 52.51 80.07 49.23Q82.25 45.95 84.13 42.60L84.13 42.60Q85.53 40.18 86.51 37.37Q87.48 34.57 87.91 31.64Q88.34 28.72 88.14 25.83Q87.95 22.94 86.93 20.37L86.93 20.37Q86.70 19.98 86.86 19.82L86.86 19.82Q87.01 19.67 87.36 20.02Q87.71 20.37 87.79 20.53L87.79 20.53Q88.73 21.85 89.31 24.00Q89.90 26.14 90.17 28.75Q90.44 31.37 90.44 34.25Q90.44 37.14 90.21 40.03L90.21 40.03Q89.90 43.85 89.08 48.37Q88.26 52.90 87.09 56.64L87.09 56.64Q87.01 56.80 86.82 57.34Q86.62 57.89 86.39 57.89L86.39 57.89Q86.23 57.81 86.15 57.22Q86.08 56.64 86.08 56.48L86.08 56.48Q86.08 55.63 86.12 54.42Q86.15 53.21 86.23 51.92Q86.31 50.63 86.43 49.42Q86.54 48.22 86.70 47.36L86.70 47.36Q86.78 46.89 86.97 45.21Q87.17 43.54 87.32 41.43L87.32 41.43Q86.39 43.61 85.84 45.33Q85.30 47.05 84.91 48.68Q84.52 50.32 84.24 52.12Q83.97 53.91 83.74 56.33L83.74 56.33Q83.50 58.75 83.54 61.40Q83.58 64.05 84.09 66.62Q84.59 69.20 85.57 71.65Q86.54 74.11 88.10 76.14L88.10 76.14Q88.42 76.61 88.26 76.69L88.26 76.69Q88.10 76.76 87.87 76.53L87.87 76.53Q85.37 74.50 83.93 71.97Q82.49 69.43 81.79 66.62Q81.08 63.82 81.05 60.89Q81.01 57.97 81.32 55.16L81.32 55.16Q81.47 54.14 81.59 53.13Q81.71 52.12 81.86 51.02L81.86 51.02Q80.07 53.91 78.28 56.64Q76.48 59.37 74.92 62.06Q73.36 64.75 72.15 67.36Q70.94 69.98 70.32 72.55L70.32 72.55Q70.16 72.94 70.16 72.94L70.16 72.94Q70.01 72.94 70.01 72.63Q70.01 72.32 70.01 72.24L70.01 72.24Q70.01 71.62 70.01 70.99Q70.01 70.37 70.16 69.74L70.16 69.74Q69.54 69.43 69.07 69.16Q68.60 68.89 68.18 68.50Q67.75 68.11 67.32 67.56Q66.89 67.01 66.42 66.16L66.42 66.16Q66.03 65.38 65.64 64.28Q65.25 63.19 64.98 62.14Q64.70 61.09 64.67 60.34Q64.63 59.60 64.86 59.60L64.86 59.60Q65.02 59.60 65.21 59.88Q65.41 60.15 65.64 60.54Q65.87 60.93 66.03 61.32Q66.19 61.71 66.26 61.87L66.26 61.87Q66.65 62.80 67.08 63.70Q67.51 64.60 67.98 65.45ZM69.62 50.24L69.62 51.02Q71.33 47.67 73.17 44.51Q75.00 41.35 76.09 39.48L76.09 39.48Q77.96 36.13 79.99 32.89Q82.02 29.65 83.50 27.16L83.50 27.16Q83.66 26.77 83.85 26.45Q84.05 26.14 84.20 26.30L84.20 26.30Q84.36 26.30 84.28 26.69Q84.20 27.08 84.13 27.47L84.13 27.47Q83.03 33.08 80.19 38.08Q77.34 43.07 74.22 48.14L74.22 48.14Q73.13 49.85 72.31 50.98Q71.49 52.12 70.91 53.17Q70.32 54.22 69.93 55.47Q69.54 56.72 69.38 58.67L69.38 58.67Q69.70 57.81 70.09 57.03Q70.48 56.25 70.87 55.55L70.87 55.55Q73.05 51.80 75.78 48.06Q78.51 44.32 81.16 41.04L81.16 41.04Q81.32 40.88 81.75 40.38Q82.18 39.87 82.33 39.95L82.33 39.95Q82.49 40.03 82.29 40.65Q82.10 41.27 82.02 41.59L82.02 41.59Q81.63 42.44 81.05 43.69Q80.46 44.94 79.80 46.23Q79.13 47.51 78.43 48.72Q77.73 49.93 77.18 50.71L77.18 50.71Q76.87 51.18 75.86 52.58Q74.84 53.99 73.67 56.09Q72.50 58.20 71.37 60.85Q70.24 63.50 69.70 66.47L69.70 66.47Q69.46 66.00 69.11 65.30Q68.76 64.60 68.29 63.04L68.29 63.04Q66.89 58.12 66.77 53.09Q66.65 48.06 66.73 42.76L66.73 42.76Q66.81 39.40 66.77 36.05Q66.73 32.69 65.64 28.95L65.64 28.95Q65.56 28.64 65.64 28.48L65.64 28.48Q65.80 28.48 66.11 28.95L66.11 28.95Q67.51 30.43 68.21 33.28Q68.92 36.13 69.23 39.28Q69.54 42.44 69.58 45.45Q69.62 48.45 69.62 50.24L69.62 50.24ZM49.10 44.24L49.10 44.24Q50.43 40.18 52.11 36.05Q53.78 31.91 55.03 28.64L55.03 28.64Q55.19 28.25 55.38 27.86Q55.58 27.47 55.73 27.55L55.73 27.55Q55.89 27.55 55.85 28.05Q55.81 28.56 55.81 28.95L55.81 28.95Q55.11 35.35 53.00 41.66Q50.90 47.98 48.32 54.14L48.32 54.14Q46.76 58.04 44.97 61.98Q43.18 65.92 42.01 70.52L42.01 70.52Q41.85 70.91 41.89 70.99Q41.93 71.07 41.85 71.07L41.85 71.07Q41.62 70.91 41.62 70.37L41.62 70.37Q41.23 68.03 42.08 64.48Q42.94 60.93 44.27 57.15Q45.59 53.36 47.00 49.89Q48.40 46.42 49.10 44.24ZM45.75 62.80L45.75 62.80Q47.70 58.36 49.96 53.64Q52.22 48.92 54.33 44.63L54.33 44.63Q54.41 44.39 54.76 43.77Q55.11 43.15 55.42 43.22L55.42 43.22Q55.58 43.22 55.50 43.93Q55.42 44.63 55.27 44.94L55.27 44.94Q55.03 46.03 54.64 47.55Q54.25 49.07 53.75 50.67Q53.24 52.27 52.69 53.79Q52.15 55.31 51.68 56.33L51.68 56.33Q51.44 56.80 50.86 58.32Q50.27 59.84 49.46 61.94Q48.64 64.05 47.74 66.43Q46.84 68.81 46.06 70.95Q45.28 73.10 44.70 74.77Q44.11 76.45 44.03 77.15L44.03 77.15Q43.88 77.93 43.72 77.93L43.72 77.93Q43.57 77.93 43.53 77.62Q43.49 77.31 43.41 77.15L43.41 77.15Q43.02 76.22 43.06 74.42Q43.10 72.63 43.49 70.60Q43.88 68.57 44.46 66.47Q45.05 64.36 45.75 62.80ZM92.24 56.09L92.24 56.09Q91.85 59.60 91.03 63.11Q90.21 66.62 89.59 69.35L89.59 69.35Q89.27 70.37 89.12 70.29L89.12 70.29Q88.96 70.29 88.92 69.94Q88.88 69.59 88.81 69.20L88.81 69.20Q88.18 63.97 88.96 58.75Q89.74 53.52 90.68 48.06L90.68 48.06Q91.30 44.78 91.69 41.31Q92.08 37.84 91.69 33.86L91.69 33.86Q91.69 33.55 91.85 33.40L91.85 33.40Q92.00 33.40 92.04 33.59Q92.08 33.79 92.24 33.86L92.24 33.86Q93.41 35.58 93.60 38.58Q93.80 41.59 93.56 44.86Q93.33 48.14 92.90 51.18Q92.47 54.22 92.24 56.09ZM56.90 26.30L56.90 26.30Q56.75 24.66 56.48 23.26Q56.20 21.85 55.81 20.37L55.81 20.37Q55.73 20.21 55.73 19.98Q55.73 19.75 55.81 19.75L55.81 19.75Q56.05 19.75 56.28 19.98L56.28 19.98L56.59 20.29Q57.45 21.46 58.00 22.59Q58.54 23.72 58.70 26.30L58.70 26.30Q58.78 27.31 58.70 28.79Q58.62 30.28 58.43 31.60Q58.23 32.93 57.96 33.86Q57.68 34.80 57.45 34.72L57.45 34.72Q57.29 34.72 57.22 34.29Q57.14 33.86 57.10 33.32Q57.06 32.77 57.06 32.19Q57.06 31.60 57.06 31.37L57.06 31.37Q57.06 30.04 57.06 28.83Q57.06 27.62 56.90 26.30ZM85.45 25.28L85.45 25.28Q85.37 23.88 85.18 22.63Q84.98 21.38 84.59 20.06L84.59 20.06Q84.52 19.90 84.48 19.67Q84.44 19.43 84.59 19.51L84.59 19.51Q84.75 19.67 84.87 19.75Q84.98 19.82 85.14 19.90L85.14 19.90L85.30 20.06Q86.15 21.15 86.66 22.16Q87.17 23.18 87.25 25.52L87.25 25.52Q87.25 26.38 87.05 27.70Q86.86 29.03 86.58 30.24Q86.31 31.45 85.96 32.26Q85.61 33.08 85.30 32.93L85.30 32.93Q85.14 32.85 85.14 32.42Q85.14 31.99 85.14 31.48Q85.14 30.98 85.22 30.51Q85.30 30.04 85.30 29.81L85.30 29.81Q85.45 28.56 85.49 27.47Q85.53 26.38 85.45 25.28ZM88.18 71.46L88.18 71.46Q88.65 72.79 89.24 73.88Q89.82 74.97 90.44 76.06L90.44 76.06Q90.52 76.14 90.60 76.33Q90.68 76.53 90.52 76.53L90.52 76.53Q90.29 76.53 90.17 76.45Q90.05 76.37 89.90 76.30L89.90 76.30Q89.74 76.22 89.66 76.14L89.66 76.14Q88.57 75.28 87.87 74.50Q87.17 73.72 86.47 71.69L86.47 71.69Q86.23 70.91 86.00 69.74Q85.76 68.57 85.69 67.48Q85.61 66.39 85.69 65.61Q85.76 64.83 86.08 64.83L86.08 64.83Q86.15 64.83 86.31 65.18Q86.47 65.53 86.58 65.96Q86.70 66.39 86.82 66.82Q86.93 67.25 87.01 67.40L87.01 67.40Q87.40 68.50 87.64 69.51Q87.87 70.52 88.18 71.46Z"></path></svg>